<svg width="78" height="78" viewBox="0 0 78 78" fill="none" xmlns="http://www.w3.org/2000/svg">
<path d="M28.184 46.5725C28.184 50.765 31.4015 54.145 35.399 54.145H43.5565C47.034 54.145 49.8615 51.1875 49.8615 47.5475C49.8615 43.5825 48.139 42.185 45.5715 41.275L32.474 36.725C29.9065 35.815 28.184 34.4175 28.184 30.4525C28.184 26.8125 31.0115 23.855 34.489 23.855H42.6465C46.644 23.855 49.8615 27.235 49.8615 31.4275M39 19.5V58.5" stroke="white" stroke-width="3" stroke-linecap="round" stroke-linejoin="round"/>
<path d="M39 71.5C56.9497 71.5 71.5 56.9497 71.5 39C71.5 21.0503 56.9497 6.5 39 6.5C21.0503 6.5 6.5 21.0503 6.5 39C6.5 56.9497 21.0503 71.5 39 71.5Z" stroke="white" stroke-width="3" stroke-linecap="round" stroke-linejoin="round"/>
</svg>
