<svg width="78" height="78" viewBox="0 0 78 78" fill="none" xmlns="http://www.w3.org/2000/svg">
<path d="M31.2 64H46.8C59.8 64 65 58.8 65 45.8V30.2C65 17.2 59.8 12 46.8 12H31.2C18.2 12 13 17.2 13 30.2V45.8C13 58.8 18.2 64 31.2 64Z" stroke="white" stroke-width="3" stroke-linecap="round" stroke-linejoin="round"/>
<path d="M26.0325 12.5V6M39 12.5V6M52 12.5V6M65 25.5H71.5M65 38.5H71.5M65 51.5H71.5M52 64.5V71M39.0325 64.5V71M26.0325 64.5V71M6.5 25.5H13M6.5 38.5H13M6.5 51.5H13M34.125 54.75H43.875C52 54.75 55.25 51.5 55.25 43.375V33.625C55.25 25.5 52 22.25 43.875 22.25H34.125C26 22.25 22.75 25.5 22.75 33.625V43.375C22.75 51.5 26 54.75 34.125 54.75Z" stroke="white" stroke-width="3" stroke-linecap="round" stroke-linejoin="round"/>
</svg>
