<svg width="78" height="78" viewBox="0 0 78 78" fill="none" xmlns="http://www.w3.org/2000/svg">
<path d="M68 27.4248V49.6962C68 53.343 66.0517 56.7293 62.902 58.5852L43.6142 69.7535C40.4645 71.5769 36.568 71.5769 33.3858 69.7535L14.098 58.5852C12.5451 57.6824 11.2565 56.3857 10.3617 54.8254C9.46683 53.2651 8.99721 51.4961 9.00001 49.6962V27.4248C9.00001 23.778 10.9483 20.3917 14.098 18.5358L33.3858 7.36754C36.5355 5.54415 40.432 5.54415 43.6142 7.36754L62.902 18.5358C66.0517 20.3917 68 23.7455 68 27.4248Z" stroke="white" stroke-width="3" stroke-linecap="round" stroke-linejoin="round"/>
<path d="M52 54.1296C52 48.2687 46.1825 43.5148 39 43.5148C31.8175 43.5148 26 48.2687 26 54.1296M39 35.7003C41.0084 35.7003 42.9344 34.901 44.3546 33.4782C45.7747 32.0555 46.5725 30.1258 46.5725 28.1137C46.5725 26.1016 45.7747 24.1719 44.3546 22.7492C42.9344 21.3264 41.0084 20.5271 39 20.5271C36.9916 20.5271 35.0656 21.3264 33.6454 22.7492C32.2253 24.1719 31.4275 26.1016 31.4275 28.1137C31.4275 30.1258 32.2253 32.0555 33.6454 33.4782C35.0656 34.901 36.9916 35.7003 39 35.7003V35.7003Z" stroke="white" stroke-width="3" stroke-linecap="round" stroke-linejoin="round"/>
</svg>
