<svg width="39" height="22" viewBox="0 0 39 22" fill="none" xmlns="http://www.w3.org/2000/svg">
<path d="M9.55375 22C7.60027 22 5.90114 21.5948 4.45638 20.7845C3.03197 19.9742 1.93313 18.7891 1.15988 17.2293C0.386627 15.6694 0 13.7449 0 11.4558C0 9.0046 0.457847 6.92818 1.37354 5.22652C2.30959 3.52486 3.59156 2.22836 5.21946 1.33702C6.86771 0.445672 8.76014 0 10.8968 0C12.0363 0 13.125 0.121547 14.1627 0.36464C15.2005 0.607734 16.0959 0.972375 16.8488 1.45856L15.0174 5.07459C14.4273 4.66943 13.7965 4.39595 13.125 4.25414C12.4534 4.09208 11.7514 4.01105 11.0189 4.01105C9.16712 4.01105 7.70201 4.56814 6.62352 5.68232C5.54504 6.7965 5.0058 8.44751 5.0058 10.6354C5.0058 11 5.0058 11.4052 5.0058 11.8508C5.02615 12.2965 5.08719 12.7422 5.18894 13.1878L3.81539 11.9116C4.20202 11.1215 4.70057 10.4632 5.31103 9.93646C5.92149 9.3895 6.64387 8.98435 7.47817 8.72099C8.33282 8.43738 9.26886 8.29558 10.2863 8.29558C11.67 8.29558 12.9113 8.56906 14.0101 9.11602C15.109 9.66298 15.984 10.4328 16.6351 11.4254C17.3066 12.418 17.6424 13.5829 17.6424 14.9199C17.6424 16.3582 17.2761 17.6142 16.5435 18.6878C15.8313 19.7413 14.8648 20.5617 13.6438 21.1492C12.4433 21.7164 11.0799 22 9.55375 22ZM9.27904 18.3232C9.9709 18.3232 10.5814 18.2017 11.1104 17.9586C11.6598 17.6952 12.0872 17.3204 12.3924 16.8343C12.6976 16.3481 12.8502 15.791 12.8502 15.163C12.8502 14.1906 12.5145 13.4208 11.843 12.8536C11.1918 12.2661 10.3168 11.9724 9.21799 11.9724C8.48544 11.9724 7.84445 12.1142 7.29503 12.3978C6.74562 12.6611 6.30812 13.0359 5.98254 13.5221C5.67731 13.988 5.52469 14.535 5.52469 15.163C5.52469 15.7707 5.67731 16.3177 5.98254 16.8039C6.28777 17.2698 6.71509 17.6446 7.26451 17.9282C7.81393 18.1915 8.48544 18.3232 9.27904 18.3232Z" fill="white"/>
<path d="M19.1905 17.1685V13.8564L29.2631 0.36464H34.452L24.5931 13.8564L22.1817 13.1575H39V17.1685H19.1905ZM30.6977 21.6354V17.1685L30.8503 13.1575V9.1768H35.5204V21.6354H30.6977Z" fill="white"/>
</svg>
