<svg width="285" height="292" viewBox="0 0 285 292" fill="none" xmlns="http://www.w3.org/2000/svg">
<path d="M283.703 9.9112C284.12 9.19519 283.877 8.27696 283.161 7.8603L271.493 1.07034C270.777 0.653678 269.859 0.896348 269.442 1.61237C269.026 2.32838 269.268 3.2466 269.984 3.66327L280.356 9.69879L274.32 20.0705C273.904 20.7865 274.146 21.7047 274.862 22.1214C275.578 22.5381 276.497 22.2954 276.913 21.5794L283.703 9.9112ZM3.38327 84.4502L282.79 10.607L282.024 7.70656L2.61673 81.5498L3.38327 84.4502Z" fill="white"/>
<path d="M284.061 144.061C284.646 143.475 284.646 142.525 284.061 141.939L274.515 132.393C273.929 131.808 272.979 131.808 272.393 132.393C271.808 132.979 271.808 133.929 272.393 134.515L280.879 143L272.393 151.485C271.808 152.071 271.808 153.021 272.393 153.607C272.979 154.192 273.929 154.192 274.515 153.607L284.061 144.061ZM3 144.5L283 144.5V141.5L3 141.5V144.5Z" fill="white"/>
<path d="M276.213 285.213C276.941 284.818 277.211 283.908 276.816 283.18L270.382 271.312C269.987 270.583 269.077 270.313 268.348 270.708C267.62 271.103 267.35 272.013 267.745 272.742L273.464 283.291L262.915 289.01C262.187 289.405 261.916 290.316 262.311 291.044C262.706 291.772 263.617 292.043 264.345 291.648L276.213 285.213ZM2.57312 204.438L275.071 285.333L275.925 282.457L3.42688 201.562L2.57312 204.438Z" fill="white"/>
</svg>
