<svg width="269" height="258" viewBox="0 0 269 258" fill="none" xmlns="http://www.w3.org/2000/svg">
<path d="M266.59 10.0019C267.006 9.28518 266.763 8.36714 266.047 7.95143L254.375 1.17698C253.659 0.761266 252.741 1.0053 252.325 1.72204C251.909 2.43879 252.152 3.35683 252.869 3.77254L263.243 9.79428L257.217 20.1765C256.801 20.8933 257.044 21.8113 257.761 22.227C258.477 22.6428 259.395 22.3987 259.811 21.682L266.59 10.0019ZM0.877026 81.1025L265.678 10.6991L264.909 7.79929L0.108325 78.2027L0.877026 81.1025Z" fill="white"/>
<path d="M268.147 92.1864C268.688 91.5591 268.618 90.6119 267.991 90.0708L257.771 81.2528C257.144 80.7117 256.197 80.7816 255.656 81.4089C255.114 82.0362 255.184 82.9834 255.811 83.5245L264.896 91.3627L257.055 100.449C256.514 101.077 256.584 102.024 257.211 102.565C257.838 103.106 258.785 103.036 259.326 102.409L268.147 92.1864ZM1.84191 112.271L267.121 92.7026L266.901 89.7107L1.62196 109.279L1.84191 112.271Z" fill="white"/>
<path d="M268.002 167.623C268.628 167.079 268.694 166.132 268.15 165.507L259.293 155.316C258.749 154.691 257.802 154.624 257.177 155.168C256.552 155.711 256.486 156.658 257.029 157.284L264.902 166.342L255.846 174.213C255.221 174.756 255.155 175.704 255.698 176.329C256.242 176.955 257.189 177.021 257.814 176.478L268.002 167.623ZM1.56537 149.378L266.914 167.987L267.123 164.994L1.77447 146.385L1.56537 149.378Z" fill="white"/>
<path d="M259.397 250.202C260.116 249.791 260.364 248.874 259.953 248.155L253.243 236.434C252.832 235.715 251.915 235.465 251.197 235.877C250.478 236.288 250.229 237.205 250.641 237.924L256.605 248.342L246.194 254.302C245.476 254.713 245.227 255.629 245.639 256.349C246.05 257.068 246.967 257.318 247.685 256.906L259.397 250.202ZM1.60698 180.447L258.258 250.348L259.044 247.452L2.39302 177.552L1.60698 180.447Z" fill="white"/>
</svg>
