<svg width="993" height="125" viewBox="0 0 993 125" fill="none" xmlns="http://www.w3.org/2000/svg">
<path fill-rule="evenodd" clip-rule="evenodd" d="M474.812 3.7116C474.596 3.81514 474.373 3.92187 474.145 4.03174C470.45 5.80991 465.173 8.41452 458.834 11.7251C446.158 18.3447 429.221 27.7942 412.188 39.1095C395.162 50.4205 378 63.6233 364.906 77.7537C352.672 90.9552 343.913 105.05 342.239 119.226L334.469 113.082C333.825 112.574 332.745 112.546 332.055 113.02C331.366 113.494 331.328 114.291 331.971 114.799L342.452 123.085C343.095 123.594 344.175 123.621 344.865 123.147L356.103 115.42C356.793 114.946 356.83 114.149 356.187 113.641C355.544 113.132 354.464 113.105 353.774 113.579L345.677 119.146C347.368 105.665 355.754 92.0925 367.725 79.174C380.611 65.2678 397.562 52.2153 414.474 40.98C431.38 29.7489 448.205 20.3609 460.808 13.7797C467.107 10.4898 472.348 7.9031 476.011 6.14008C477.843 5.25862 479.28 4.58316 480.258 4.12878C480.464 4.03267 480.651 3.94645 480.816 3.87026L481.141 3.86377L481.37 3.85929L481.548 3.92405C481.86 4.03802 482.324 4.20859 482.931 4.43393C484.144 4.8846 485.927 5.5543 488.199 6.42825C492.743 8.17622 499.241 10.7409 507.049 14.0042C522.668 20.5322 543.514 29.8492 564.438 41.0102C585.372 52.1765 606.328 65.159 622.21 79.0109C636.958 91.8748 647.19 105.367 649.144 118.761L641.082 113.217C640.392 112.743 639.312 112.771 638.669 113.279C638.026 113.788 638.063 114.584 638.753 115.058L649.991 122.786C650.681 123.26 651.761 123.232 652.404 122.724L662.885 114.438C663.528 113.929 663.49 113.133 662.801 112.659C662.111 112.184 661.03 112.212 660.387 112.721L652.594 118.882C650.678 104.63 639.889 90.5312 624.818 77.3855C608.687 63.316 587.487 50.1968 566.44 38.9703C545.383 27.7385 524.423 18.3715 508.733 11.8139C500.886 8.53434 494.352 5.95571 489.779 4.1961C489.372 4.03956 488.98 3.88949 488.605 3.74599C491.98 3.70314 496.258 3.66088 501.339 3.63456C515.114 3.56319 534.793 3.60896 558.398 4.07766C605.611 5.01514 668.514 7.64427 731.304 14.4085C794.115 21.1752 856.715 32.0703 903.374 49.505C926.705 58.2226 945.966 68.5451 959.277 80.7391C971.575 92.0057 978.742 104.818 979.434 119.413L972.514 113.487C971.923 112.981 970.942 113.074 970.324 113.694C969.705 114.314 969.682 115.227 970.273 115.733L979.902 123.979C980.493 124.485 981.474 124.392 982.092 123.772L992.175 113.666C992.794 113.046 992.816 112.133 992.225 111.627C991.634 111.121 990.654 111.213 990.035 111.833L982.547 119.339C981.933 103.745 974.333 90.2323 961.58 78.5488C947.931 66.0446 928.319 55.5745 904.819 46.7934C857.816 29.2306 794.92 18.3035 732.029 11.5283C669.116 4.7507 606.113 2.11835 558.845 1.1798C535.21 0.71049 515.504 0.664618 501.705 0.736106C494.806 0.771851 489.383 0.836936 485.684 0.893113C484.534 0.910589 483.55 0.927203 482.74 0.941804C481.963 0.926541 481.01 0.909024 479.891 0.89052C476.4 0.832805 471.281 0.76547 464.77 0.72687C451.747 0.649668 433.149 0.687398 410.843 1.14697C366.234 2.06603 306.776 4.6725 247.408 11.4248C188.062 18.1745 128.706 29.0774 84.358 46.6269C41.6073 63.5443 12.2392 86.872 11.0839 119.124L3.60176 111.625C2.98302 111.004 2.00246 110.912 1.41159 111.418C0.820722 111.924 0.843286 112.837 1.46199 113.457L11.5446 123.563C12.1633 124.183 13.1439 124.276 13.7348 123.77L23.3637 115.524C23.9545 115.018 23.932 114.105 23.3132 113.485C22.6945 112.865 21.7139 112.773 21.1231 113.279L14.1955 119.211C15.5112 88.7881 43.3912 66.1223 85.853 49.3191C129.846 31.9103 188.891 21.043 248.151 14.303C307.389 7.56557 366.742 4.96266 411.293 4.04478C433.566 3.58588 452.135 3.54825 465.134 3.62531C468.823 3.64717 472.063 3.67828 474.812 3.7116Z" fill="#414141"/>
</svg>
