<svg width="30" height="30" viewBox="0 0 30 30" fill="none" xmlns="http://www.w3.org/2000/svg">
<rect width="30" height="30" rx="15" fill="white"/>
<path d="M21.0307 15.2542C20.9577 14.9223 20.7959 14.6441 20.5457 14.4192C20.2954 14.1944 20.0073 14.0622 19.681 14.0228C18.6465 13.9104 17.0862 13.8542 15 13.8542C12.9138 13.8542 11.3563 13.9104 10.3273 14.0228C9.99562 14.0622 9.70605 14.1944 9.45855 14.4192C9.21111 14.6441 9.04804 14.9225 8.96929 15.2542C8.82312 15.9065 8.75 16.8905 8.75 18.2063C8.75 19.5445 8.82312 20.5286 8.96929 21.1584C9.04249 21.49 9.20417 21.7685 9.45439 21.9933C9.70461 22.2182 9.99278 22.3475 10.3189 22.3813C11.3536 22.4993 12.914 22.5584 15 22.5584C17.0859 22.5584 18.6467 22.4993 19.681 22.3813C20.0072 22.3475 20.2939 22.2182 20.5414 21.9933C20.7889 21.7685 20.952 21.49 21.0306 21.1584C21.1768 20.506 21.25 19.522 21.25 18.2063C21.25 16.8681 21.1768 15.884 21.0307 15.2542ZM12.318 16.1062H11.4156V20.9052H10.5722V16.1062H9.68653V15.3134H12.3181L12.318 16.1062ZM14.5952 20.9052H13.8446V20.4497C13.541 20.7928 13.2541 20.9643 12.9842 20.9643C12.7256 20.9643 12.5625 20.8602 12.4951 20.6522C12.4502 20.5172 12.4276 20.3119 12.4276 20.0364V16.7387H13.1782V19.8087C13.1782 19.9886 13.1811 20.0871 13.1867 20.104C13.2036 20.222 13.2626 20.2811 13.3639 20.2811C13.5156 20.2811 13.676 20.163 13.8446 19.9268V16.7387H14.5953L14.5952 20.9052ZM17.4629 19.6569C17.4629 20.0674 17.4377 20.3487 17.3873 20.5005C17.2915 20.8096 17.092 20.9643 16.7884 20.9643C16.5185 20.9643 16.2571 20.8096 16.0039 20.5005V20.9053H15.2534V15.3134H16.0039V17.1437C16.2458 16.8402 16.5072 16.6883 16.7884 16.6883C17.092 16.6883 17.2915 16.8458 17.3873 17.1606C17.4376 17.3068 17.4629 17.5851 17.4629 17.9956V19.6569ZM20.3137 18.9654H18.804V19.6992C18.804 20.0872 18.9333 20.2811 19.192 20.2811C19.3775 20.2811 19.49 20.18 19.5293 19.9774C19.5404 19.9212 19.5462 19.7497 19.5462 19.463H20.3137V19.5726C20.3137 19.8482 20.308 20.0112 20.2968 20.0619C20.2801 20.2135 20.2212 20.3654 20.1197 20.5172C19.9173 20.8153 19.6134 20.9643 19.2086 20.9643C18.8208 20.9643 18.5171 20.8208 18.2978 20.5342C18.1348 20.3261 18.0533 20 18.0533 19.5558V18.0965C18.0533 17.6524 18.1319 17.3262 18.2893 17.1182C18.5087 16.8315 18.8095 16.6881 19.192 16.6881C19.5688 16.6881 19.867 16.8315 20.086 17.1182C20.238 17.3262 20.3137 17.6524 20.3137 18.0965V18.9654Z" fill="#070200"/>
<path d="M16.3832 17.371C16.2538 17.371 16.1274 17.4331 16.0037 17.5566V20.0952C16.1274 20.2189 16.2538 20.2807 16.3832 20.2807C16.6024 20.2807 16.7123 20.0925 16.7123 19.7156V17.9361C16.7122 17.5593 16.6026 17.371 16.3832 17.371Z" fill="#070200"/>
<path d="M19.1834 17.371C18.9304 17.371 18.8039 17.5623 18.8039 17.9444V18.3324H19.5629V17.9444C19.5629 17.5621 19.4364 17.371 19.1834 17.371Z" fill="#070200"/>
<path d="M11.8295 10.8094V13.0952H12.6728V10.8094L13.6932 7.44409H12.833L12.2595 9.66234L11.6607 7.44409H10.7667C10.9241 7.91646 11.1069 8.44215 11.3149 9.02134C11.5792 9.79725 11.7506 10.3934 11.8295 10.8094Z" fill="#070200"/>
<path d="M14.8228 13.1538C15.2108 13.1538 15.5087 13.0104 15.7167 12.7236C15.8743 12.5156 15.9529 12.1838 15.9529 11.7284V10.2523C15.9529 9.80256 15.8741 9.47352 15.7167 9.26546C15.5087 8.9787 15.2108 8.83531 14.8228 8.83531C14.4459 8.83531 14.1507 8.9787 13.9371 9.26546C13.7797 9.47352 13.701 9.80256 13.701 10.2523V11.7284C13.701 12.1781 13.7796 12.5099 13.9371 12.7236C14.1508 13.0104 14.4459 13.1538 14.8228 13.1538ZM14.46 10.1005C14.46 9.71248 14.5809 9.51848 14.8228 9.51848C15.0646 9.51848 15.1854 9.71248 15.1854 10.1005V11.8716C15.1854 12.2654 15.0646 12.462 14.8228 12.462C14.5809 12.462 14.46 12.2653 14.46 11.8716V10.1005Z" fill="#070200"/>
<path d="M17.1422 13.1541C17.4235 13.1541 17.7132 12.9797 18.0111 12.631V13.0949H18.7786V8.88623H18.0111V12.0997C17.8424 12.3415 17.6822 12.4623 17.5302 12.4623C17.4289 12.4623 17.3698 12.4005 17.3531 12.2768C17.3474 12.2655 17.3446 12.167 17.3446 11.9815V8.88623H16.5771V12.2094C16.5771 12.4961 16.5997 12.7069 16.6446 12.8419C16.7178 13.05 16.8836 13.1541 17.1422 13.1541Z" fill="#070200"/>
</svg>
